<svg width="248" height="93" viewBox="0 0 248 93" fill="none" xmlns="http://www.w3.org/2000/svg">
<path d="M11.496 92.7387H2.02871C1.49067 92.7387 0.974655 92.5249 0.594197 92.1445C0.213739 91.764 0 91.248 0 90.71V27.1436C0 26.6055 0.213739 26.0895 0.594197 25.709C0.974655 25.3286 1.49067 25.1149 2.02871 25.1149H11.496C12.0341 25.1149 12.5501 25.3286 12.9306 25.709C13.311 26.0895 13.5248 26.6055 13.5248 27.1436V90.71C13.5248 91.248 13.311 91.764 12.9306 92.1445C12.5501 92.5249 12.0341 92.7387 11.496 92.7387Z" fill="#064A7B"/>
<path d="M37.8693 46.7545V37.9634C37.8693 37.4253 37.6556 36.9093 37.2751 36.5289C36.8947 36.1484 36.3787 35.9347 35.8406 35.9347H18.2584C17.7204 35.9347 17.2044 36.1484 16.8239 36.5289C16.4435 36.9093 16.2297 37.4253 16.2297 37.9634V46.7545H37.8693Z" fill="#064A7B"/>
<path d="M16.2297 81.9189V90.7099C16.2297 91.248 16.4435 91.764 16.8239 92.1445C17.2044 92.5249 17.7204 92.7387 18.2584 92.7387H35.8406C36.3787 92.7387 36.8947 92.5249 37.2751 92.1445C37.6556 91.764 37.8693 91.248 37.8693 90.7099V81.9189H16.2297Z" fill="#064A7B"/>
<path d="M16.2297 52.1644H37.8693V76.509H16.2297V52.1644Z" fill="#064A7B"/>
<path d="M54.7753 92.7387H42.603C42.065 92.7387 41.5489 92.5249 41.1685 92.1445C40.788 91.764 40.5743 91.248 40.5743 90.71V19.0287C40.5743 18.4907 40.788 17.9747 41.1685 17.5942C41.5489 17.2137 42.065 17 42.603 17H54.7753C55.3133 17 55.8293 17.2137 56.2098 17.5942C56.5903 17.9747 56.804 18.4907 56.804 19.0287V90.71C56.804 91.248 56.5903 91.764 56.2098 92.1445C55.8293 92.5249 55.3133 92.7387 54.7753 92.7387Z" fill="#064A7B"/>
<path d="M59.678 28.6144L64.7498 90.7995C64.7723 91.0722 64.8497 91.3376 64.9774 91.5795C65.1052 91.8215 65.2805 92.0352 65.4929 92.2076C65.7053 92.3801 65.9505 92.5078 66.2135 92.5831C66.4766 92.6584 66.7522 92.6797 67.0237 92.6457L79.223 91.1241C79.7424 91.0592 80.2166 90.796 80.5465 90.3896C80.8763 89.9831 81.0363 89.4649 80.993 88.9433L75.9077 27.01C75.8853 26.741 75.8095 26.4792 75.6846 26.2399C75.5598 26.0006 75.3884 25.7886 75.1806 25.6163C74.9727 25.4441 74.7326 25.315 74.4743 25.2368C74.216 25.1585 73.9446 25.1326 73.6761 25.1605L61.4819 26.4301C60.9557 26.487 60.4726 26.7472 60.1356 27.1553C59.7986 27.5633 59.6344 28.0869 59.678 28.6144Z" fill="#064A7B"/>
<path d="M103.68 32.464H118.08V82H103.68V32.464ZM121.104 70.408H136.512V82H121.104V70.408ZM142.633 34.624V32.464H155.881L176.617 76.528L174.241 82H164.881L142.633 34.624ZM183.313 61.192H183.025L178.201 72.856L172.009 59.608L183.313 32.464H196.993V82H183.313V61.192ZM142.633 41.752L155.881 69.976V82H142.633V41.752ZM240.464 43.84C238.88 43.648 236.096 43.384 232.112 43.048C229.904 42.952 228.128 42.904 226.784 42.904C225.056 42.904 223.424 42.952 221.888 43.048V31.888H223.688C227.624 31.888 231.704 32.152 235.928 32.68C237.272 32.872 238.784 33.136 240.464 33.472V43.84ZM228.584 67.384C228.584 66.376 228.512 65.656 228.368 65.224C228.224 64.744 227.984 64.432 227.648 64.288C227.312 64.096 226.736 63.952 225.92 63.856L217.064 62.776C211.832 62.2 208.304 60.496 206.48 57.664C205.664 56.464 205.112 55 204.824 53.272C204.536 51.544 204.392 49.432 204.392 46.936C204.392 41.608 205.76 37.768 208.496 35.416C210.704 33.496 214.16 32.368 218.864 32.032V46.504C218.864 47.128 218.888 47.656 218.936 48.088C218.984 48.52 219.08 48.856 219.224 49.096C219.368 49.384 219.608 49.6 219.944 49.744C220.28 49.84 220.784 49.912 221.456 49.96L231.392 51.184C233.456 51.472 235.136 51.832 236.432 52.264C237.728 52.696 238.832 53.368 239.744 54.28C241.904 56.536 242.984 60.544 242.984 66.304C242.984 72.4 241.64 76.672 238.952 79.12C237.752 80.224 236.288 81.04 234.56 81.568C232.88 82.048 230.888 82.36 228.584 82.504V67.384ZM224.768 82.576C219.968 82.576 215.504 82.36 211.376 81.928C208.928 81.688 207.08 81.448 205.832 81.208V70.696C208.664 70.936 211.904 71.176 215.552 71.416C217.856 71.512 219.488 71.56 220.448 71.56C223.04 71.56 224.744 71.488 225.56 71.344V82.576H224.768Z" fill="#33B5D1"/>
</svg>
